<?xml version="1.0" encoding="utf-8"?> <svg version="1.1" id="Layer_1" xmlns="http://www.w3.org/2000/svg" xmlns:xlink="http://www.w3.org/1999/xlink" x="0px" y="0px" viewBox="0 0 512.1 512" style="enable-background:new 0 0 512.1 512;" xml:space="preserve"> <path style="fill:#FC6067;" d="M447.9,197.5c-0.8-11.2-2-22.6-4.5-33.5c-4.4-19.5-12-38-22.4-55.2c-12.6-20.7-28.2-38.8-47.4-53.5 c-14.5-11.1-30.3-20.1-47.4-26.7c-17.2-6.7-35-11.6-53.4-12.5c-19.2-1-38.5-0.8-57.6,3.6c-19.9,4.6-38.8,11.6-56.4,22 c-18,10.7-34.1,23.6-47.9,39.6c-11,12.8-20.3,26.8-27.8,41.8c-10.5,21-17.2,43.4-18.7,66.7c-1.1,16.9-0.5,34.2,2,51 c3.6,24.4,12.3,47.4,23.4,69.4c11.7,23.3,25.1,45.7,41.8,65.8c15.5,18.5,30.9,37.1,47.2,54.9c10.1,11.1,21.6,20.9,32.8,31 c11.3,10.1,22.8,19.9,34.5,29.5c8.2,6.8,12.4,6.3,20.6-0.7c0.7-0.7,1.4-1.4,2.1-2.1c19.3-16.9,39-33.4,57.7-51 c11.7-11,22.4-23.3,32.8-35.7c12.1-14.4,23.6-29.3,34.7-44.4c13.5-18.5,24.3-38.5,34-59.6c0.6-1.7,1.3-3,1.9-4.4 c5-15.8,10.9-31.6,14.9-47.7C448.7,230,448.9,213.7,447.9,197.5z"/> <circle style="fill:#9966CC;" cx="255.7" cy="207.9" r="144.1"/> <path style="fill:#565D69;" d="M231.9,159.9c0-9.8,0-19.7,0-29.5c0-7.6,2.7-10.4,10.1-10.4c30.7,0,61.3,0,92,0 c7.1,0,9.9,2.8,9.9,10.1c0,52,0,104,0,156c0,7.1-2.9,9.9-10.1,9.9c-7,0-14,0-21.5-0.5c-0.5-15.7-0.4-30.8-0.5-45.9 c0-6.5-3-9.4-9.5-9.5c-9.3-0.1-18.6,0-27.9,0c-7.9,0-10.5,2.7-10.6,10.4c0,15.1,0,30.3,0,45.4c-10.4,0-20.7,0.1-31.5-0.4 C231.9,249.9,231.9,204.9,231.9,159.9 M269.3,175.4c5.8,0.9,9.8-1.3,10.5-6.2c0.4-3.4,0.9-7.2-0.1-10.4c-0.8-2.6-3.4-5.6-5.9-6.4 c-2.2-0.7-6,0.8-7.8,2.6C261.6,159.4,263.5,171.4,269.3,175.4 M298.6,154.1c-4.3,5.3-3.1,11.3-1.7,17c0.9,3.8,4.5,5.3,8.3,4.7 s6.2-3.2,6.6-7.1c0.3-2.5,0.2-5,0.1-7.5C311.8,153.3,306.5,150.2,298.6,154.1 M280,201.7c-0.3-6.4-3.3-9.8-8.2-9.7 c-4.9,0.1-7.8,3.7-7.9,10c0,2.3-0.2,4.7,0.1,7c0.7,4.3,3.4,6.9,7.8,6.9s7.1-2.5,7.9-6.8C280.2,207,279.9,204.8,280,201.7 M297.5,212.6c2.3,2.8,5.5,4.5,8.7,2.7c2.3-1.3,4.7-3.9,5.4-6.4c0.9-3.2,0.6-7,0.1-10.4c-0.6-4-3.4-6.5-7.6-6.6s-7.4,2.2-7.8,6.2 C295.9,202.8,296.8,207.4,297.5,212.6z"/> <path style="fill:#4E5460;" d="M231.5,159.9c0.5,45,0.5,90,0.5,135.4c-18.5,0.5-36.9,0.6-55.4,0.6c-5.5,0-8.6-3.2-8.6-8.8 c-0.1-39.4-0.1-78.9,0-118.3c0-6,3.2-8.8,9.6-8.8C195.4,159.9,213.2,160,231.5,159.9 M207.6,216c4.2-0.1,7.3-2.1,8-6.1 c0.7-3.9,0.6-8,0-11.9c-0.7-4-3.9-6.2-8.1-5.9c-4.1,0.3-6.8,2.8-7.4,6.8c-0.4,2.4-0.1,5-0.2,7.5C199.8,211.3,201.8,214.7,207.6,216 M199.9,245.3c0,0.7,0,1.3,0,2c0.4,5.4,3.6,8.8,8.3,8.6c4.5-0.2,7.6-3.5,7.7-8.7c0.1-2.6,0.2-5.3-0.1-8c-0.4-4.4-3.8-7.4-8-7.3 c-4.1,0-7.4,3.1-7.9,7.5C199.8,241.1,200,242.8,199.9,245.3z"/> <path style="fill:#00CC99;" d="M264.4,295.9c-0.5-15.2-0.5-30.3-0.4-45.5c0-7.8,2.7-10.4,10.6-10.4c9.3,0,18.6-0.1,27.9,0 c6.5,0.1,9.4,3,9.5,9.5c0.1,15.1,0,30.3,0,45.9C296.3,295.8,280.6,295.9,264.4,295.9z"/> <path style="fill:#E3E6EB;" d="M268.9,175.3c-5.4-3.9-7.3-15.9-3-20.2c1.8-1.8,5.6-3.2,7.8-2.6c2.5,0.8,5.1,3.8,5.9,6.4 c1,3.2,0.6,6.9,0.1,10.4C279.1,174.2,275.1,176.4,268.9,175.3z"/> <path style="fill:#E3E6EB;" d="M298.9,153.8c7.6-3.7,12.9-0.5,13.1,7.4c0.1,2.5,0.2,5-0.1,7.5c-0.4,3.9-2.8,6.4-6.6,7.1 c-3.9,0.6-7.4-0.9-8.3-4.7C295.5,165.4,294.3,159.4,298.9,153.8z"/> <path style="fill:#E3E6EB;" d="M280,202.2c0,2.6,0.2,4.8-0.2,6.9c-0.8,4.3-3.5,6.8-7.9,6.8s-7.1-2.6-7.8-6.9c-0.4-2.3-0.2-4.6-0.1-7 c0-6.3,2.9-9.9,7.9-10C276.7,191.9,279.6,195.4,280,202.2z"/> <path style="fill:#E3E6EB;" d="M297.3,212.3c-0.5-4.9-1.4-9.6-1-14.1c0.4-4,3.6-6.3,7.8-6.2c4.2,0.1,7,2.5,7.6,6.6 c0.5,3.4,0.8,7.1-0.1,10.4c-0.7,2.5-3.1,5.1-5.4,6.4C303,217.1,299.9,215.5,297.3,212.3z"/> <path style="fill:#E3E6EB;" d="M207.2,215.9c-5.4-1.3-7.4-4.6-7.2-9.6c0.1-2.5-0.2-5,0.2-7.5c0.6-4.1,3.2-6.6,7.4-6.8 c4.2-0.3,7.4,1.9,8.1,5.9c0.7,3.9,0.7,8,0,11.9C214.9,213.9,211.8,215.9,207.2,215.9z"/> <path style="fill:#E3E6EB;" d="M199.9,244.9c0-2.1-0.1-3.8,0.1-5.4c0.5-4.4,3.7-7.4,7.9-7.5c4.1,0,7.6,3,8,7.3 c0.2,2.6,0.2,5.3,0.1,8c-0.2,5.1-3.3,8.5-7.7,8.7c-4.6,0.2-7.9-3.2-8.3-8.6C199.9,246.7,199.9,246,199.9,244.9z"/> </svg>